<svg width="24" height="24" viewBox="0 0 24 24" fill="none" xmlns="http://www.w3.org/2000/svg">
<g id="fi-rr-angle-small-right">
<path id="Vector" d="M15.3999 9.88001L10.8099 5.29001C10.6225 5.10376 10.369 4.99922 10.1049 4.99922C9.84068 4.99922 9.58723 5.10376 9.39986 5.29001C9.30613 5.38298 9.23174 5.49358 9.18097 5.61544C9.1302 5.7373 9.10406 5.868 9.10406 6.00001C9.10406 6.13203 9.1302 6.26273 9.18097 6.38459C9.23174 6.50645 9.30613 6.61705 9.39986 6.71001L13.9999 11.29C14.0936 11.383 14.168 11.4936 14.2188 11.6154C14.2695 11.7373 14.2957 11.868 14.2957 12C14.2957 12.132 14.2695 12.2627 14.2188 12.3846C14.168 12.5065 14.0936 12.6171 13.9999 12.71L9.39986 17.29C9.21156 17.477 9.10524 17.7311 9.10431 17.9965C9.10337 18.2618 9.20789 18.5167 9.39486 18.705C9.58184 18.8933 9.83596 18.9996 10.1013 19.0006C10.3667 19.0015 10.6216 18.897 10.8099 18.71L15.3999 14.12C15.9617 13.5575 16.2772 12.795 16.2772 12C16.2772 11.205 15.9617 10.4425 15.3999 9.88001Z" fill="#7B7B7B"/>
</g>
</svg>
