<svg width="10" height="9" viewBox="0 0 10 9" fill="none" xmlns="http://www.w3.org/2000/svg">
<g id="fi-ss-heart">
<g clip-path="url(#clip0_3_491)">
<path id="Vector" d="M7.14384 0.588013C6.73565 0.59437 6.33636 0.708461 5.9863 0.918764C5.63623 1.12907 5.34779 1.42814 5.15009 1.78577C4.9524 1.42814 4.66396 1.12907 4.31389 0.918764C3.96383 0.708461 3.56454 0.59437 3.15634 0.588013C2.50564 0.61632 1.89256 0.901336 1.45107 1.38079C1.00957 1.86025 0.775535 2.49517 0.800095 3.14685C0.800095 5.60588 4.77164 8.44601 4.94057 8.56651L5.15009 8.71496L5.35962 8.56651C5.52854 8.44674 9.50009 5.60588 9.50009 3.14685C9.52465 2.49517 9.29062 1.86025 8.84912 1.38079C8.40763 0.901336 7.79455 0.61632 7.14384 0.588013Z" fill="white"/>
</g>
</g>
<defs>
<clipPath id="clip0_3_491">
<path d="M0.799988 1.25513C0.799988 0.702842 1.2477 0.255127 1.79999 0.255127H8.49999C9.05227 0.255127 9.49999 0.702842 9.49999 1.25513V7.96607C9.49999 8.51835 9.05227 8.96607 8.49999 8.96607H1.79999C1.2477 8.96607 0.799988 8.51836 0.799988 7.96607V1.25513Z" fill="white"/>
</clipPath>
</defs>
</svg>
