<svg width="17" height="14" viewBox="0 0 17 14" fill="none" xmlns="http://www.w3.org/2000/svg">
<g id="Group">
<path id="Vector" d="M3.99215 12.4245C3.10059 11.5329 2.49344 10.397 2.24747 9.16039C2.00149 7.92377 2.12774 6.64197 2.61026 5.4771C3.09277 4.31222 3.90987 3.31659 4.95823 2.6161C6.00659 1.91561 7.23913 1.54172 8.49998 1.54172C9.76083 1.54172 10.9934 1.91561 12.0417 2.6161C13.0901 3.31659 13.9072 4.31222 14.3897 5.4771C14.8722 6.64197 14.9985 7.92377 14.7525 9.16039C14.5065 10.397 13.8994 11.5329 13.0078 12.4245L14.0094 13.4261C14.734 12.7034 15.3086 11.8446 15.7003 10.8991C16.092 9.95363 16.2929 8.94007 16.2916 7.91667C16.2916 3.61354 12.8031 0.125 8.49998 0.125C4.19686 0.125 0.708313 3.61354 0.708313 7.91667C0.708313 10.0686 1.58027 12.0165 2.99056 13.4261L3.99215 12.4245Z" fill="#159643"/>
<path id="Vector_2" d="M12.0062 11.4229C12.6996 10.7295 13.1718 9.84597 13.3631 8.88416C13.5543 7.92236 13.4561 6.92543 13.0808 6.01944C12.7055 5.11345 12.07 4.3391 11.2546 3.79429C10.4392 3.24948 9.4806 2.95869 8.49996 2.95869C7.51932 2.95869 6.56069 3.24948 5.74531 3.79429C4.92993 4.3391 4.29441 5.11345 3.91911 6.01944C3.54381 6.92543 3.44559 7.92236 3.63686 8.88416C3.82814 9.84597 4.30033 10.7295 4.99371 11.4229L5.996 10.4213C5.50069 9.92603 5.16337 9.29496 5.02671 8.60795C4.89004 7.92093 4.96018 7.20881 5.22824 6.56165C5.49629 5.9145 5.95024 5.36136 6.53266 4.97219C7.11509 4.58303 7.79984 4.37531 8.50031 4.37531C9.20079 4.37531 9.88554 4.58303 10.468 4.97219C11.0504 5.36136 11.5043 5.9145 11.7724 6.56165C12.0405 7.20881 12.1106 7.92093 11.9739 8.60795C11.8373 9.29496 11.4999 9.92603 11.0046 10.4213L12.0062 11.4229Z" fill="#159643"/>
<path id="Vector_3" d="M10.0024 9.41904C10.2995 9.12184 10.5019 8.7432 10.5838 8.331C10.6658 7.9188 10.6237 7.49155 10.4628 7.10328C10.302 6.71501 10.0296 6.38315 9.68018 6.14967C9.33074 5.91619 8.91991 5.79156 8.49964 5.79156C8.07937 5.79156 7.66853 5.91619 7.31909 6.14967C6.96964 6.38315 6.69727 6.71501 6.53643 7.10328C6.37558 7.49155 6.33348 7.9188 6.41544 8.331C6.4974 8.7432 6.69976 9.12184 6.99691 9.41904L7.9992 8.41746C7.90011 8.3184 7.83263 8.19219 7.80528 8.05478C7.77793 7.91737 7.79195 7.77494 7.84555 7.6455C7.89916 7.51605 7.98995 7.40541 8.10644 7.32757C8.22293 7.24973 8.35988 7.20818 8.49999 7.20818C8.64009 7.20818 8.77705 7.24973 8.89354 7.32757C9.01003 7.40541 9.10082 7.51605 9.15442 7.6455C9.20803 7.77494 9.22205 7.91737 9.1947 8.05478C9.16735 8.19219 9.09986 8.3184 9.00078 8.41746L10.0024 9.41904Z" fill="#159643"/>
</g>
</svg>
