<svg width="24" height="24" viewBox="0 0 24 24" fill="none" xmlns="http://www.w3.org/2000/svg">
<g id="raphael:shuffle">
<path id="Vector" d="M16.3395 15.4905C15.876 15.3442 15.2842 14.9632 14.622 14.3002C14.0535 13.7437 13.467 13.0267 12.867 12.2452C12.723 12.4365 12.5797 12.6277 12.4357 12.8227C12.0435 13.3537 11.6422 13.89 11.2335 14.4172C12.6615 16.1497 14.1435 17.8507 16.341 18.1312V20.1562L22.0072 16.8862L16.3402 13.614V15.4905H16.3395ZM6.89399 8.95047C7.46099 9.50547 8.04749 10.2225 8.64899 11.004C8.79449 10.8075 8.94149 10.614 9.08849 10.413C9.48032 9.88084 9.87835 9.35331 10.2825 8.83047C8.75849 6.98247 7.18274 5.15022 4.73549 5.06247H2.11049V7.68747H4.73549C5.22674 7.66722 5.99699 8.05122 6.89399 8.94972V8.95047ZM16.3395 7.75572V9.65772L22.0065 6.38547L16.3395 3.11322V5.09847C14.9115 5.26347 13.7707 6.10947 12.777 7.08147C11.1292 8.71947 9.68924 10.9575 8.26799 12.7365C6.86774 14.5642 5.46299 15.6517 4.73399 15.564H2.10899V18.189H4.73399C6.37274 18.1665 7.64399 17.2395 8.73899 16.1692C10.3845 14.5312 11.826 12.294 13.2465 10.5157C14.4037 9.00297 15.5595 8.01072 16.3395 7.75572Z" fill="#C4C4C4"/>
</g>
</svg>
